<svg width="134" height="25" viewBox="0 0 134 25" fill="none" xmlns="http://www.w3.org/2000/svg">
<path d="M107.964 17.4336V14.8305H109.726L109.779 14.7253V10.3606H103.1V14.515L103.153 14.6202L105.019 15.2512V17.4336H97.6309V14.8305H99.3137L99.3926 14.7253V3.9712L99.34 3.86602L97.4731 3.18238V1H104.914V3.60308H103.179L103.1 3.70826V7.88897H109.779V3.9712L109.726 3.86602L107.859 3.18238V1H115.248V3.60308H113.565L113.512 3.70826V14.515L113.565 14.6202L115.405 15.2512V17.4336H107.964Z" fill="#0D5146"/>
<path d="M128.415 17.4336L127.074 14.6728L125.207 10.8865L123.077 11.1494V14.515L123.13 14.6202L124.76 15.1986V17.4336H117.608V14.8305H119.291L119.37 14.7253V3.99749L119.317 3.86602L117.45 3.18238V1H125.128C126.46 1 127.573 1.08765 128.467 1.26294C129.361 1.4207 130.071 1.68364 130.597 2.05175C131.141 2.41986 131.526 2.89315 131.754 3.47161C131.982 4.05008 132.096 4.75124 132.096 5.57512C132.096 6.95992 131.78 8.03797 131.149 8.80925C130.536 9.58053 129.677 10.1678 128.573 10.5709L131.176 14.515L131.333 14.6465L133.095 15.2512V17.4336H128.415ZM128.047 6.0484C128.047 5.59265 128.003 5.21577 127.915 4.91777C127.828 4.60225 127.661 4.34807 127.416 4.15525C127.17 3.96243 126.828 3.8222 126.39 3.73455C125.952 3.64691 125.382 3.60308 124.681 3.60308H123.077V8.78296L124.891 9.0196C125.943 8.79172 126.732 8.46743 127.258 8.04673C127.784 7.62603 128.047 6.95992 128.047 6.0484Z" fill="#0D5146"/>
<mask id="path-2-outside-1" maskUnits="userSpaceOnUse" x="0" y="0.30603" width="95" height="25" fill="black">
<rect fill="white" y="0.30603" width="95" height="25"/>
<path d="M16.841 9.52903C16.841 10.5004 16.7067 11.4614 16.438 12.412C16.1693 13.3627 15.756 14.21 15.198 14.954C14.6607 15.698 13.9683 16.3077 13.121 16.783C12.2737 17.2377 11.2713 17.465 10.114 17.465C9.26667 17.465 8.533 17.341 7.913 17.093C7.31367 16.8657 6.71433 16.4834 6.115 15.946H5.96V20.751L6.022 20.875L8.347 21.743V23.696H1.496V21.123H3.325L3.418 20.999V6.39803L3.356 6.27403L1 4.84803V4.10403L5.96 2.30603V5.00303H6.115C6.673 4.25903 7.355 3.6907 8.161 3.29803C8.98767 2.8847 9.81433 2.67803 10.641 2.67803C11.9223 2.67803 12.9557 2.84336 13.741 3.17403C14.547 3.5047 15.1773 3.98003 15.632 4.60003C16.1073 5.19936 16.4277 5.9227 16.593 6.77003C16.7583 7.5967 16.841 8.51636 16.841 9.52903ZM13.865 10.273C13.865 9.26036 13.803 8.4337 13.679 7.79303C13.5757 7.15236 13.369 6.65636 13.059 6.30503C12.7697 5.93303 12.3667 5.68503 11.85 5.56103C11.3333 5.41636 10.6617 5.34403 9.835 5.34403C9.07033 5.34403 8.347 5.3957 7.665 5.49903C6.983 5.5817 6.41467 5.6747 5.96 5.77803V14.489C6.332 14.5717 6.86933 14.644 7.572 14.706C8.27467 14.7474 9.07033 14.768 9.959 14.768C10.6823 14.768 11.292 14.6957 11.788 14.551C12.284 14.4064 12.687 14.1687 12.997 13.838C13.307 13.4867 13.524 13.0217 13.648 12.443C13.7927 11.8644 13.865 11.141 13.865 10.273Z"/>
<path d="M34.6108 9.52903C34.6108 10.9137 34.3938 12.1124 33.9598 13.125C33.5258 14.117 32.9471 14.9437 32.2238 15.605C31.5004 16.2457 30.6738 16.721 29.7438 17.031C28.8138 17.341 27.8631 17.496 26.8918 17.496C24.5978 17.496 22.9341 16.8554 21.9008 15.574C20.8881 14.272 20.3818 12.474 20.3818 10.18C20.3818 8.79536 20.5988 7.60703 21.0328 6.61503C21.4668 5.62303 22.0454 4.81703 22.7688 4.19703C23.4921 3.55636 24.3188 3.09136 25.2488 2.80203C26.1788 2.49203 27.1294 2.33703 28.1008 2.33703C30.3948 2.33703 32.0481 2.96736 33.0608 4.22803C34.0941 5.46803 34.6108 7.23503 34.6108 9.52903ZM31.6658 9.93203C31.6658 8.91936 31.6038 8.08236 31.4798 7.42103C31.3764 6.7597 31.1388 6.24303 30.7668 5.87103C30.4568 5.54036 30.0228 5.31303 29.4648 5.18903C28.9274 5.04436 28.2144 4.97203 27.3258 4.97203C26.6024 4.97203 25.9824 5.0547 25.4658 5.22003C24.9491 5.3647 24.5254 5.62303 24.1948 5.99503C23.8848 6.34636 23.6471 6.83203 23.4818 7.45203C23.3371 8.07203 23.2648 8.84703 23.2648 9.77703C23.2648 10.8517 23.3268 11.73 23.4508 12.412C23.5748 13.094 23.8538 13.6314 24.2878 14.024C24.9078 14.582 26.0134 14.861 27.6048 14.861C28.3281 14.861 28.9481 14.7784 29.4648 14.613C29.9814 14.4477 30.3948 14.179 30.7048 13.807C31.0354 13.4144 31.2731 12.908 31.4178 12.288C31.5831 11.6474 31.6658 10.862 31.6658 9.93203Z"/>
<path d="M62.6983 5.37503H60.4663L60.3113 5.49903L55.8083 17H52.6773L50.2903 7.82403H49.6703L46.8183 17H43.8113L39.3703 5.74703L39.2153 5.59203L36.9213 4.78603V2.80203H43.7413V5.37503H42.0673L42.0053 5.49903L45.2063 14.737H45.8263L48.6783 5.74703L48.4923 5.59203L47.5623 5.15803L46.9731 4.78603V2.80203H53.0183V5.37503H51.8713L51.8093 5.49903L54.0723 14.737H54.6923L58.1413 5.74703L58.0793 5.59203L56.1573 4.78603V2.80203H62.6983V5.37503Z"/>
<path d="M78.3952 13.776C78.1678 14.3547 77.8372 14.8714 77.4032 15.326C76.9692 15.7807 76.4732 16.1734 75.9152 16.504C75.3778 16.814 74.7992 17.0517 74.1792 17.217C73.5592 17.3824 72.9495 17.465 72.3502 17.465C70.0355 17.465 68.3305 16.8347 67.2352 15.574C66.1398 14.2927 65.5922 12.3604 65.5922 9.77703C65.5922 8.4337 65.7575 7.29703 66.0882 6.36703C66.4395 5.41636 66.9252 4.6517 67.5452 4.07303C68.1652 3.4737 68.9092 3.0397 69.7772 2.77103C70.6452 2.4817 71.6165 2.33703 72.6912 2.33703C76.4525 2.33703 78.3332 4.2177 78.3332 7.97903L77.7132 10.397L68.4442 10.304V10.335C68.4442 11.947 68.7645 13.0837 69.4052 13.745C70.0458 14.4064 71.0998 14.737 72.5672 14.737C73.6832 14.737 74.7372 14.5614 75.7292 14.21C76.7418 13.838 77.5892 13.4454 78.2712 13.032L78.3952 13.776ZM75.6052 8.56803C75.5432 7.80336 75.4502 7.18336 75.3262 6.70803C75.2228 6.2327 75.0368 5.87103 74.7682 5.62303C74.5202 5.35436 74.1792 5.1787 73.7452 5.09603C73.3112 4.9927 72.7532 4.94103 72.0712 4.94103C71.4512 4.94103 70.9242 4.98236 70.4902 5.06503C70.0768 5.1477 69.7358 5.32336 69.4672 5.59203C69.1985 5.8607 68.9918 6.25336 68.8472 6.77003C68.7025 7.2867 68.5992 7.98936 68.5372 8.87803L75.6052 8.56803Z"/>
<path d="M93.5384 4.38303C93.5384 5.00303 93.4248 5.46803 93.1974 5.77803C92.9908 6.06736 92.5878 6.21203 91.9884 6.21203C91.4924 6.21203 91.0274 6.16036 90.5934 6.05703C90.1594 5.93303 89.7461 5.7367 89.3534 5.46803C88.9194 5.81936 88.4441 6.27403 87.9274 6.83203C87.4108 7.36936 86.9768 7.88603 86.6254 8.38203V14.055L86.6874 14.179L89.3224 15.047V17H82.1614V14.427H83.9904L84.0834 14.303V6.39803L84.0214 6.27403L81.6654 4.84803V4.10403L86.6254 2.30603V6.33603H86.9974C87.4108 5.63336 87.7828 5.03403 88.1134 4.53803C88.4648 4.02136 88.7954 3.60803 89.1054 3.29803C89.4361 2.96736 89.7668 2.7297 90.0974 2.58503C90.4488 2.4197 90.8414 2.33703 91.2754 2.33703C92.1021 2.33703 92.6808 2.5127 93.0114 2.86403C93.3628 3.21536 93.5384 3.7217 93.5384 4.38303Z"/>
</mask>
<path d="M16.841 9.52903C16.841 10.5004 16.7067 11.4614 16.438 12.412C16.1693 13.3627 15.756 14.21 15.198 14.954C14.6607 15.698 13.9683 16.3077 13.121 16.783C12.2737 17.2377 11.2713 17.465 10.114 17.465C9.26667 17.465 8.533 17.341 7.913 17.093C7.31367 16.8657 6.71433 16.4834 6.115 15.946H5.96V20.751L6.022 20.875L8.347 21.743V23.696H1.496V21.123H3.325L3.418 20.999V6.39803L3.356 6.27403L1 4.84803V4.10403L5.96 2.30603V5.00303H6.115C6.673 4.25903 7.355 3.6907 8.161 3.29803C8.98767 2.8847 9.81433 2.67803 10.641 2.67803C11.9223 2.67803 12.9557 2.84336 13.741 3.17403C14.547 3.5047 15.1773 3.98003 15.632 4.60003C16.1073 5.19936 16.4277 5.9227 16.593 6.77003C16.7583 7.5967 16.841 8.51636 16.841 9.52903ZM13.865 10.273C13.865 9.26036 13.803 8.4337 13.679 7.79303C13.5757 7.15236 13.369 6.65636 13.059 6.30503C12.7697 5.93303 12.3667 5.68503 11.85 5.56103C11.3333 5.41636 10.6617 5.34403 9.835 5.34403C9.07033 5.34403 8.347 5.3957 7.665 5.49903C6.983 5.5817 6.41467 5.6747 5.96 5.77803V14.489C6.332 14.5717 6.86933 14.644 7.572 14.706C8.27467 14.7474 9.07033 14.768 9.959 14.768C10.6823 14.768 11.292 14.6957 11.788 14.551C12.284 14.4064 12.687 14.1687 12.997 13.838C13.307 13.4867 13.524 13.0217 13.648 12.443C13.7927 11.8644 13.865 11.141 13.865 10.273Z" stroke="#00362D" stroke-width="2" mask="url(#path-2-outside-1)"/>
<path d="M34.6108 9.52903C34.6108 10.9137 34.3938 12.1124 33.9598 13.125C33.5258 14.117 32.9471 14.9437 32.2238 15.605C31.5004 16.2457 30.6738 16.721 29.7438 17.031C28.8138 17.341 27.8631 17.496 26.8918 17.496C24.5978 17.496 22.9341 16.8554 21.9008 15.574C20.8881 14.272 20.3818 12.474 20.3818 10.18C20.3818 8.79536 20.5988 7.60703 21.0328 6.61503C21.4668 5.62303 22.0454 4.81703 22.7688 4.19703C23.4921 3.55636 24.3188 3.09136 25.2488 2.80203C26.1788 2.49203 27.1294 2.33703 28.1008 2.33703C30.3948 2.33703 32.0481 2.96736 33.0608 4.22803C34.0941 5.46803 34.6108 7.23503 34.6108 9.52903ZM31.6658 9.93203C31.6658 8.91936 31.6038 8.08236 31.4798 7.42103C31.3764 6.7597 31.1388 6.24303 30.7668 5.87103C30.4568 5.54036 30.0228 5.31303 29.4648 5.18903C28.9274 5.04436 28.2144 4.97203 27.3258 4.97203C26.6024 4.97203 25.9824 5.0547 25.4658 5.22003C24.9491 5.3647 24.5254 5.62303 24.1948 5.99503C23.8848 6.34636 23.6471 6.83203 23.4818 7.45203C23.3371 8.07203 23.2648 8.84703 23.2648 9.77703C23.2648 10.8517 23.3268 11.73 23.4508 12.412C23.5748 13.094 23.8538 13.6314 24.2878 14.024C24.9078 14.582 26.0134 14.861 27.6048 14.861C28.3281 14.861 28.9481 14.7784 29.4648 14.613C29.9814 14.4477 30.3948 14.179 30.7048 13.807C31.0354 13.4144 31.2731 12.908 31.4178 12.288C31.5831 11.6474 31.6658 10.862 31.6658 9.93203Z" stroke="#00362D" stroke-width="2" mask="url(#path-2-outside-1)"/>
<path d="M62.6983 5.37503H60.4663L60.3113 5.49903L55.8083 17H52.6773L50.2903 7.82403H49.6703L46.8183 17H43.8113L39.3703 5.74703L39.2153 5.59203L36.9213 4.78603V2.80203H43.7413V5.37503H42.0673L42.0053 5.49903L45.2063 14.737H45.8263L48.6783 5.74703L48.4923 5.59203L47.5623 5.15803L46.9731 4.78603V2.80203H53.0183V5.37503H51.8713L51.8093 5.49903L54.0723 14.737H54.6923L58.1413 5.74703L58.0793 5.59203L56.1573 4.78603V2.80203H62.6983V5.37503Z" stroke="#00362D" stroke-width="2" mask="url(#path-2-outside-1)"/>
<path d="M78.3952 13.776C78.1678 14.3547 77.8372 14.8714 77.4032 15.326C76.9692 15.7807 76.4732 16.1734 75.9152 16.504C75.3778 16.814 74.7992 17.0517 74.1792 17.217C73.5592 17.3824 72.9495 17.465 72.3502 17.465C70.0355 17.465 68.3305 16.8347 67.2352 15.574C66.1398 14.2927 65.5922 12.3604 65.5922 9.77703C65.5922 8.4337 65.7575 7.29703 66.0882 6.36703C66.4395 5.41636 66.9252 4.6517 67.5452 4.07303C68.1652 3.4737 68.9092 3.0397 69.7772 2.77103C70.6452 2.4817 71.6165 2.33703 72.6912 2.33703C76.4525 2.33703 78.3332 4.2177 78.3332 7.97903L77.7132 10.397L68.4442 10.304V10.335C68.4442 11.947 68.7645 13.0837 69.4052 13.745C70.0458 14.4064 71.0998 14.737 72.5672 14.737C73.6832 14.737 74.7372 14.5614 75.7292 14.21C76.7418 13.838 77.5892 13.4454 78.2712 13.032L78.3952 13.776ZM75.6052 8.56803C75.5432 7.80336 75.4502 7.18336 75.3262 6.70803C75.2228 6.2327 75.0368 5.87103 74.7682 5.62303C74.5202 5.35436 74.1792 5.1787 73.7452 5.09603C73.3112 4.9927 72.7532 4.94103 72.0712 4.94103C71.4512 4.94103 70.9242 4.98236 70.4902 5.06503C70.0768 5.1477 69.7358 5.32336 69.4672 5.59203C69.1985 5.8607 68.9918 6.25336 68.8472 6.77003C68.7025 7.2867 68.5992 7.98936 68.5372 8.87803L75.6052 8.56803Z" stroke="#00362D" stroke-width="2" mask="url(#path-2-outside-1)"/>
<path d="M93.5384 4.38303C93.5384 5.00303 93.4248 5.46803 93.1974 5.77803C92.9908 6.06736 92.5878 6.21203 91.9884 6.21203C91.4924 6.21203 91.0274 6.16036 90.5934 6.05703C90.1594 5.93303 89.7461 5.7367 89.3534 5.46803C88.9194 5.81936 88.4441 6.27403 87.9274 6.83203C87.4108 7.36936 86.9768 7.88603 86.6254 8.38203V14.055L86.6874 14.179L89.3224 15.047V17H82.1614V14.427H83.9904L84.0834 14.303V6.39803L84.0214 6.27403L81.6654 4.84803V4.10403L86.6254 2.30603V6.33603H86.9974C87.4108 5.63336 87.7828 5.03403 88.1134 4.53803C88.4648 4.02136 88.7954 3.60803 89.1054 3.29803C89.4361 2.96736 89.7668 2.7297 90.0974 2.58503C90.4488 2.4197 90.8414 2.33703 91.2754 2.33703C92.1021 2.33703 92.6808 2.5127 93.0114 2.86403C93.3628 3.21536 93.5384 3.7217 93.5384 4.38303Z" stroke="#00362D" stroke-width="2" mask="url(#path-2-outside-1)"/>
</svg>
